<svg id="visual" viewBox="0 0 900 450" width="900" height="450" xmlns="http://www.w3.org/2000/svg" xmlns:xlink="http://www.w3.org/1999/xlink" version="1.1"><rect x="0" y="0" width="900" height="450" fill="#ffffff"></rect><defs><linearGradient id="grad1_0" x1="50%" y1="100%" x2="100%" y2="0%"><stop offset="10%" stop-color="#1c1c31" stop-opacity="1"></stop><stop offset="90%" stop-color="#1c1c31" stop-opacity="1"></stop></linearGradient></defs><defs><linearGradient id="grad1_1" x1="50%" y1="100%" x2="100%" y2="0%"><stop offset="10%" stop-color="#1c1c31" stop-opacity="1"></stop><stop offset="90%" stop-color="#858491" stop-opacity="1"></stop></linearGradient></defs><defs><linearGradient id="grad1_2" x1="50%" y1="100%" x2="100%" y2="0%"><stop offset="10%" stop-color="#ffffff" stop-opacity="1"></stop><stop offset="90%" stop-color="#858491" stop-opacity="1"></stop></linearGradient></defs><defs><linearGradient id="grad2_0" x1="0%" y1="100%" x2="50%" y2="0%"><stop offset="10%" stop-color="#1c1c31" stop-opacity="1"></stop><stop offset="90%" stop-color="#1c1c31" stop-opacity="1"></stop></linearGradient></defs><defs><linearGradient id="grad2_1" x1="0%" y1="100%" x2="50%" y2="0%"><stop offset="10%" stop-color="#858491" stop-opacity="1"></stop><stop offset="90%" stop-color="#1c1c31" stop-opacity="1"></stop></linearGradient></defs><defs><linearGradient id="grad2_2" x1="0%" y1="100%" x2="50%" y2="0%"><stop offset="10%" stop-color="#858491" stop-opacity="1"></stop><stop offset="90%" stop-color="#ffffff" stop-opacity="1"></stop></linearGradient></defs><g transform="translate(900, 450)"><path d="M-157.5 0C-152.3 -21.2 -147.1 -42.3 -134.9 -55.9C-122.6 -69.4 -103.3 -75.4 -91.2 -91.2C-79.1 -107.1 -74.3 -132.8 -60.3 -145.5C-46.3 -158.2 -23.1 -157.9 0 -157.5L0 0Z" fill="#c0c0c7"></path><path d="M-105 0C-101.5 -14.1 -98.1 -28.2 -89.9 -37.2C-81.8 -46.3 -68.9 -50.2 -60.8 -60.8C-52.8 -71.4 -49.5 -88.5 -40.2 -97C-30.9 -105.5 -15.4 -105.2 0 -105L0 0Z" fill="#4e4d5f"></path><path d="M-52.5 0C-50.8 -7.1 -49 -14.1 -45 -18.6C-40.9 -23.1 -34.4 -25.1 -30.4 -30.4C-26.4 -35.7 -24.8 -44.3 -20.1 -48.5C-15.4 -52.7 -7.7 -52.6 0 -52.5L0 0Z" fill="#1c1c31"></path></g><g transform="translate(0, 0)"><path d="M157.5 0C156.3 21.3 155.1 42.6 145.5 60.3C135.9 78 117.8 92 100.4 100.4C83 108.8 66.4 111.5 49.7 120.1C33.1 128.7 16.6 143.1 0 157.5L0 0Z" fill="#c0c0c7"></path><path d="M105 0C104.2 14.2 103.4 28.4 97 40.2C90.6 52 78.5 61.3 66.9 66.9C55.4 72.5 44.2 74.4 33.2 80.1C22.1 85.8 11 95.4 0 105L0 0Z" fill="#4e4d5f"></path><path d="M52.5 0C52.1 7.1 51.7 14.2 48.5 20.1C45.3 26 39.3 30.7 33.5 33.5C27.7 36.3 22.1 37.2 16.6 40C11 42.9 5.5 47.7 0 52.5L0 0Z" fill="#1c1c31"></path></g></svg>